<svg xmlns="http://www.w3.org/2000/svg" viewBox="0 0 256 256" fill="none">
  <rect width="256" height="256" rx="56" fill="#F6F3EC"/>
  <circle cx="128" cy="128" r="76" stroke="#15354F" stroke-width="7"/>
  <path d="M52 128h152M128 52c23 19 36 46 36 76s-13 57-36 76c-23-19-36-46-36-76s13-57 36-76Z" stroke="#15354F" stroke-width="5" opacity=".85"/>
  <path d="M73 93c18 8 37 11 55 11s37-3 55-11M73 163c18-8 37-11 55-11s37 3 55 11" stroke="#15354F" stroke-width="5" stroke-linecap="round" opacity=".75"/>
  <path d="M95 176c10-10 21-16 33-16 12 0 23 6 33 16" stroke="#A41164" stroke-width="6" stroke-linecap="round"/>
  <path d="M94 195h68" stroke="#A41164" stroke-width="6" stroke-linecap="round"/>
</svg>